<svg xmlns="http://www.w3.org/2000/svg" width="500" height="176.33" viewBox="0 0 132.29167 46.653981">
  <g>
    <g transform="matrix(0.99937431,0,0,0.99937431,2.423321e-4,0)">
      <path d="m 280.9375,9.0175781 c -3.40723,-0.059422 -7.03912,0.1864237 -7.94141,0.7890625 -2.94424,1.9659924 -3.88086,5.1462474 -2.83398,11.9492184 0.5744,3.732276 1.38561,15.791786 1.80273,26.798829 0.41717,11.007046 1.04697,22.275979 1.95704,24.878906 0,0 0.49938,3.115713 1.64843,3.970703 2.3503,1.748814 8.74219,0.90039 8.74219,0.900391 h 9.19336 v 10.27539 8.923828 l -10.03516,0.140625 c -4.17644,0.123213 -6.62625,-0.343553 -8.22265,0.16211 -1.5964,0.505655 -2.65794,1.968359 -3.40625,2.990239 -1.58033,2.15792 -1.72827,5.83737 -1.49219,8.66601 0.51275,1.15643 2.21842,3.54666 3.71484,4.375 1.49643,0.82855 3.08334,-0.0541 5.75391,0.26172 1.27933,-0.12484 3.34129,0.16697 5.64453,0.002 2.30324,-0.1655 4.84766,-0.78791 7.68945,-0.93945 5.68367,-0.30346 11.95866,-0.52574 16.88477,-0.45117 4.47357,0.0678 6.28997,0.65185 8.79883,0.77344 3.48475,0.16909 8.34886,0.64643 11.50586,-1.92383 2.51427,-2.33021 3.62552,-5.13142 3.01172,-8.06641 -1.04082,-4.977032 -1.58993,-5.735558 -6.84766,-5.849609 -14.60545,-0.317404 -16.08102,0.853279 -17.82617,-2.521484 -1.96316,-3.796679 -2.1931,-14.222758 -0.35352,-16.0625 0.73197,-0.731959 4.23748,-1.298828 8.03906,-1.298828 7.50471,0 6.64905,-0.02027 7.91016,-9.494141 0.98631,-7.408641 5.96921,-31.977007 7.29688,-36.1875 0.59537,-1.888194 1.4563,-5.871024 1.54882,-9.035156 0.23648,-8.104673 -1.30524,-7.388264 -24.4082,-7.408203 -17.20638,-0.01595 -17.92888,0.114204 -19.92383,-1.88086 -1.19004,-1.189923 -1.26367,-3.098377 -1.26367,-3.693359 0,-0.6193474 -3.18062,-0.985623 -6.58789,-1.0449219 z m 23.70703,19.6582029 12.20899,0.166016 0.2539,2.945312 c -0.32462,5.323612 -6.49878,30.930456 -7.76367,32.195313 0.65923,0.62784 -5.03226,1.385598 -9.75195,1.648437 -7.80452,0.434514 -8.68952,0.276124 -9.76758,-1.738281 -0.70405,-1.315582 -1.18555,-8.625163 -1.18555,-18.003906 0,-13.242772 -0.32914,-15.145718 1.07227,-15.683594 0.91927,-0.352524 7.96967,-1.623012 14.93359,-1.529297 z m -201.8418,4.853516 c -7.324773,0.004 -7.590991,2.536416 -7.591792,10.070312 -5.56e-4,5.083306 -0.320787,16.111664 -0.408204,25.460938 l -0.279296,32.316403 2.134765,3.00782 c 0.09252,1.76504 3.189529,1.25214 6.212887,1.18554 3.02337,-0.0666 5.36351,0.48803 6.76172,-0.77734 1.67959,-1.51999 1.96289,-3.51822 1.96289,-13.753908 0,-7.880556 0.44249,-12.413229 1.29102,-13.261718 0.74783,-0.747833 4.3308,-1.289063 8.5332,-1.289063 6.26864,0 7.46888,-0.322495 8.91602,-2.388672 0.91987,-1.313306 1.67383,-3.959328 1.67383,-5.880859 0,-2.17519 -1.13423,-4.688304 -3.51368,-5.966797 -2.37937,-1.278531 -6.0049,-1.322265 -9.61132,-1.322265 -7.92503,0 -7.28907,-1.541726 -7.28907,-14.486329 0,-6.104466 0.39388,-9.16702 -0.76758,-10.873047 -1.16161,-1.706146 -3.87894,-2.056966 -8.02539,-2.041015 z m 47.85938,6.072265 c -8.2194,-0.06538 -15.31196,0.337298 -16.22461,1.25 -0.70911,0.709074 -2.15234,3.840829 -2.15234,6.958985 0,3.98191 0.23103,7.174334 3.1914,8.675781 2.9602,1.501493 8.65128,1.310924 17.50586,1.97461 13.70851,1.027502 18.02232,1.654781 17.94336,3.367187 -0.02,0.457761 -0.7396,3.733809 -1.5957,7.279297 v 0.002 c -1.48941,6.495628 -2.6786,7.668195 -0.97266,9.251953 1.70595,1.582284 6.30891,3.575968 13.64063,-0.01172 0.45465,-0.4381 2.06088,-5.805961 3.57226,-11.929687 4.46524,-18.091514 2.27271,-22.742222 -11.91992,-25.259766 -5.42183,-0.961704 -14.76887,-1.493272 -22.98828,-1.558594 z m 67.30273,0.423829 c -0.36793,-0.0048 -0.74475,-0.0027 -1.12304,0.0078 -1.51318,0.04188 -3.03211,0.202204 -3.92774,0.433594 l -3.25586,0.839844 -0.33203,12.291015 c -0.12563,8.127802 -1.06486,18.143825 1.97656,23.199219 1.33991,2.227172 5.17448,3.362033 8.53907,3.511719 0.31385,0.01549 0.61427,0.0094 0.91797,0.0078 0.1416,-7.31e-4 0.2891,0.0083 0.42773,0.0039 0.0222,-7.05e-4 0.0463,8e-4 0.0684,0 l 12.19531,-0.441406 c 2.3264,-0.08696 4.50362,-0.132979 6.47656,-0.158203 3.90258,-0.04874 7.00053,-0.01858 8.82227,-0.06445 0.95316,-0.02285 1.5914,-0.06363 1.8125,-0.148438 1.6927,-0.649576 3.63157,-2.906459 4.06641,-5.646484 0.43483,-2.740067 -0.63421,-6.652466 -2.19727,-7.859375 -0.42035,-0.324514 -1.27895,-0.42156 -2.52734,-0.417969 -2.03435,-0.0015 -5.14512,0.279721 -9.16211,0.28125 -0.0106,-10e-7 -0.0207,3e-6 -0.0312,0 -5.51229,-0.0014 -11.06414,-0.137231 -12.1543,-0.720703 -2.55958,-1.369856 -4.52762,-8.187889 -5.30664,-16.914062 -0.58497,-6.552616 0.59671,-7.124429 -2.42773,-7.929688 -0.45302,-0.120457 -1.07963,-0.194773 -1.78321,-0.236328 -0.003,-1.8e-4 -0.007,-0.0018 -0.01,-0.002 -0.33798,-0.02129 -0.69652,-0.03236 -1.06446,-0.03711 z m 173.00977,2.570312 c -3.31589,0 -4.57131,1.02748 -5.59961,4.789063 -1.03011,3.761586 -0.76796,10.46829 -1.05664,23.52539 -0.48945,22.149835 -0.9729,22.063915 1.19726,23.583985 1.22665,0.859177 4.28088,2.939453 5.88086,2.939453 2.29081,0 4.45904,-1.2045 5.5254,-3.492188 1.06552,-2.28765 0.81835,-5.869571 0.81835,-10.626953 0,-8.753575 -1.23074,-8.123047 4.2461,-8.123047 1.58196,0 4.32142,-0.538422 5.45312,-2.265625 1.62645,-2.482337 2.29509,-5.224167 0.92774,-7.644531 -0.84707,-1.499497 -3.70524,-3.244881 -5.57422,-3.882812 -4.49828,-1.535388 -3.65251,0.336419 -3.9707,-6.414063 -0.20712,-4.389827 -0.78565,-8.283816 -1.81836,-10.230469 -1.0328,-1.946653 -3.58017,-2.158203 -6.0293,-2.158203 z M 19.558594,48.498047 c -3.827623,-0.02003 -6.132684,0.0424 -6.753906,0.375 -1.592733,0.852393 -2.076172,2.267179 -2.076172,6.058594 0,3.068379 0.210671,6.651077 1.99414,8.095703 1.783271,1.444584 5.138995,0.749509 8.664063,0.773437 8.865907,0.05858 7.605468,-0.344555 7.605469,11.623047 v 10.396484 l -6.177735,5.84375 c -3.289787,3.324239 -8.744882,7.73976 -11.882812,10.058598 -3.1380113,2.31887 -6.1140882,5.26618 -6.6113285,6.55078 -1.413959,3.6524 1.9157531,8.5427 6.4472655,9.47265 4.318723,0.88634 10.627867,-2.27144 22.097656,-11.0625 7.427623,-5.69296 7.668914,-5.77487 11.654297,-3.95898 3.885604,1.77039 3.49357,5.43011 -1.130859,10.54883 -4.488004,4.96766 -5.314008,10.8893 -1.88086,13.49023 2.224324,1.5519 4.418426,2.25474 6.88086,1.13281 2.462434,-1.12193 5.129557,-3.98269 10.007812,-8.82812 l 9.333985,-9.26953 4.773437,0.29297 c 2.969843,0.42985 4.349377,1.84934 5.970703,2.07422 2.283663,0.31706 5.29316,0.0206 6.945313,-2.51563 2.780383,-4.24339 1.365362,-7.7309 -4.160156,-10.248046 -6.317216,-2.877846 -7.327747,-4.388128 -6.939454,-10.388672 l 0.332032,-5.111328 4.857422,-0.419922 c 3.21171,-0.278362 7.057285,-2.621742 7.640625,-3.205078 0.583298,-0.583299 0.912076,-3.401939 0.728515,-6.261719 -0.28713,-4.478555 -2.333096,-5.458954 -5.109375,-7.074219 -2.91521,-1.696256 -6.03815,-0.905959 -19.642578,0.09766 -8.272641,0.610217 -12.370712,0.747606 -13.109375,1.359376 -0.73858,0.611693 -1.6875,4.407734 -1.6875,6.960937 0,2.6893 0.703379,4.9848 2.400391,6.050781 1.697053,1.065986 3.354388,1.245377 6.636719,1.773438 3.816975,0.614086 3.855468,0.51543 3.855468,4.298828 0,2.497406 -0.732416,4.65522 -1.955078,5.761719 -1.825107,1.651668 -2.325329,1.587369 -7.513672,-0.998047 -8.206964,-4.089823 -9.86914,-7.023304 -9.86914,-17.394532 0,-5.735115 0.46162,-8.949415 1.40039,-9.728515 0.771202,-0.640044 5.346856,-1.015996 9.746094,-1.677735 4.912346,-0.738901 7.99942,-0.663812 8.824219,-1.726562 1.896521,-2.443616 1.840114,-9.673551 -0.261719,-11.996094 -1.614584,-1.784186 -5.740405,-1.101562 -26.140625,-1.101562 -6.715917,0 -12.066868,-0.102335 -15.894531,-0.123047 z m 341.759766,4.462891 v 0.002 c -3.26295,-0.02381 -6.87681,0.053 -10.30078,0.04102 l -11.01953,-0.03906 -0.39649,21.017578 c -0.0539,5.276519 0.14662,8.562508 0.0645,11.734375 l -0.13477,5.220703 c -0.0738,2.855074 4.99514,3.40302 11.20703,3.236328 3.10595,-0.08334 9.75846,0.264929 13.61133,0.05078 3.85291,-0.214148 4.90633,-0.990979 8.69141,-2.050781 4.78321,-2.422314 4.43111,-6.462428 4.57031,-22.111328 l 0.12695,-14.246094 -8.2207,-2.287109 c -2.02274,-0.418919 -4.93623,-0.544749 -8.19922,-0.568359 z m 66.95508,10.007812 c -8.6363,-0.03591 -10.1875,2.079364 -10.1875,7.068359 0,4.554758 0.67731,6.213723 10.71679,6.402344 5.00969,0.09411 11.19994,-0.251316 11.85743,0.40625 0.6551,0.655238 1.25299,3.194318 1.06836,5.773438 -0.32618,4.556757 -0.47305,4.728696 -5.14844,6.064453 -2.64628,0.756007 -8.09375,1.294922 -8.09375,1.294922 0,0 -2.83372,1.781847 -2.84571,2.816406 l -0.1875,16.197268 c -0.11754,10.03134 -0.5634,16.22004 0.66797,17.04101 l 1.90821,1.27344 c 0.91736,0.61193 4.95449,1.46243 7.57226,1.52148 2.61778,0.0582 3.81484,-0.67382 10.07227,-0.67382 3.6788,0 4.37687,0.62855 6.21875,0.53125 3.52634,-0.18622 6.92936,-1.53556 6.60156,-5.74805 0,-1.04604 -0.33202,-2.68552 -1.00391,-3.77539 -0.67166,-1.08987 -1.68214,-1.62937 -2.60937,-2.17578 -1.85446,-1.09282 -3.80448,-0.51305 -8.42578,-0.99805 -4.54908,-0.47773 -8.61405,0.49942 -8.53906,-2.30273 l 0.20898,-7.74805 c 0.068,-2.53609 0.0768,-3.41091 0.47461,-4.03906 0.50513,-0.79721 2.83856,-1.25227 5.70117,-1.78711 7.25042,-1.354543 10.25427,-2.701806 11.6211,-11.160158 1.26221,-7.810851 1.33765,-20.761019 -0.70118,-22.453125 -0.87745,-0.728217 -6.32248,-1.918124 -11.61132,-2.613281 -5.28889,-0.695195 -10.42086,-0.896075 -15.33594,-0.916016 z m 63.90625,1.785156 v 0.002 c -1.95183,0.059 -3.59763,0.671098 -4.75586,1.572266 -2.80713,2.710877 -3.28815,7.785788 -4.58789,11.935547 -0.45627,1.414998 -0.62404,3.27132 -1.68946,4.320312 -1.76042,1.593173 -3.23293,1.765918 -9.5371,1.132813 -9.92002,-0.996276 -12.74415,-0.293565 -12.74415,4.205078 0,4.33567 1.41786,6.10852 8.90235,8.298828 8.49789,2.486997 9.43983,2.536129 7.92383,5.86328 -0.93521,2.05253 -0.829,2.63331 -3.19336,2.60938 -1.7421,-0.0159 -5.17968,-1.77992 -5.54297,-2.05469 -0.55151,-0.41704 -2.86885,-1.17187 -5.48047,-1.17187 -4.55017,0 -4.53711,1.07995 -4.53711,4.11523 0,1.33744 0.0214,2.65006 1.07031,3.87695 1.0492,1.22693 3.1255,2.36778 5.83399,4.20704 3.52826,2.39599 6.41601,4.1429 6.41601,4.73828 0,0.5953 -0.84362,2.9958 -1.78711,4.82031 -4.52163,10.16749 -2.59232,18.49727 6.64844,15.08203 1.02807,-0.46837 2.02781,-0.95228 3.17188,-3.38086 1.14413,-2.42862 2.57185,-7.85052 4.64843,-13.97266 2.82565,-8.3303 7.15527,-21.05063 9.96289,-28.695311 7.87238,-21.434936 8.5577,-22.715937 6.25196,-25.263671 -1.10189,-1.217602 -3.793,-2.10733 -6.11914,-2.226563 -0.29065,-0.01587 -0.57662,-0.02161 -0.85547,-0.01367 z m -137.33985,0.289063 c 1.40076,0.03987 3.44851,0.320336 6.45313,0.376953 l 3.93164,0.07422 0.12109,7.072265 c 0,4.284945 -0.65153,8.110543 -1.72461,9.642578 L 362.4043,83.125 c -1.60266,0.104504 0.3292,-0.09226 -1.75391,0.236328 -2.08307,0.328592 -6.90267,0.814061 -8.96094,0.332031 l 0.0195,-5.101562 -0.0469,-5.253906 c 0.14196,-7.283226 0.0962,-8.37958 3.17773,-8.294922 z M 152.26172,90.841797 c -22.38403,-0.0977 -24.05932,0.828479 -24.0293,6.09375 0.0359,6.108093 3.79072,7.935543 16.33594,7.935543 8.49269,0 9.66899,-0.60224 10.64258,1.2168 0.61169,1.14294 0.59375,8.11751 0.59375,14.65625 0,10.45629 0.0868,11.9735 1.97656,13.86328 v 0.002 c 2.36186,2.36186 8.42466,2.89096 11.88867,1.0371 1.88919,-1.01107 2.25,-1.85213 2.25,-14.41015 0,-11.60557 -0.41799,-14.09083 1.00977,-14.63867 0.93466,-0.35891 5.0218,-0.30664 9.92383,-0.30664 10.20074,0 12.96383,-1.49392 12.72851,-7.753911 -0.13636,-3.630107 -0.6207,-6.196668 -4.74023,-7.142578 -4.11953,-0.945906 -11.18323,-0.273855 -27.66211,-0.458984 -4.09844,-0.04585 -7.72026,-0.07977 -10.91797,-0.09375 z m 76.44726,4.464844 -21.20703,0.171875 -1.1914,3.857422 c 0.0159,3.497592 0.36774,7.053462 2.52734,8.058592 0.81464,0.3792 2.10078,0.50521 3.81836,0.5293 2.8237,0.0474 6.8415,-0.19211 11.89648,-0.0508 0.0291,8.1e-4 0.0548,0.001 0.084,0.002 l 26.1914,0.7832 c 0.003,-0.005 0.008,-0.0233 0.0117,-0.0293 l 1.08008,0.0312 -0.0625,-7.82618 0.0625,-5.527339 h -0.80078 z m 144.8379,2.316406 c -2.59611,-0.125216 -6.85962,1.866782 -7.56055,3.693363 -0.70473,1.83651 0.72339,6.81445 2.48047,7.93164 0.34892,0.22212 1.50575,0.7752 2.92187,0.99414 1.41607,0.21895 3.09123,0.1014 4.75781,0.10937 7.66699,0.02 10.14258,0.64945 10.14258,3.64844 0,1.11934 -0.37977,2.10174 -1.56836,2.39844 -1.18851,0.29669 -3.18534,-0.0921 -7.26367,0.24804 -2.40966,0.20058 -6.22604,0.13058 -8.20703,0.4375 -1.98102,0.30709 -2.61637,1.34193 -3,1.66016 -0.93938,0.77958 -1.35128,8.21708 -1.09766,14.50195 0.25361,6.28492 -0.5084,12.18883 0.42383,13.1211 2.0054,1.45671 24.83747,1.26085 30.48828,0.97851 2.24705,-0.75385 3.40625,-2.64307 3.40625,-5.1875 0,-2.56117 -1.448,-6.1509 -3.42968,-7.37109 -0.99088,-0.6101 -4.09235,-0.88876 -6.64258,-1.20899 -2.55028,-0.3202 -5.66863,-0.0523 -8.0918,-0.26367 -0.95527,-0.0893 -5.20627,-0.81133 -4.43359,-2.30859 1.6283,-3.15516 7.18235,-1.90201 10.57422,-2.43555 6.23546,-0.16509 8.4981,0.34083 9.47851,-1 2.24519,-3.07042 4.72241,-13.69194 3.96484,-18.74414 -0.58359,-3.89163 -1.12113,-6.14878 -2.9375,-7.55273 -1.81636,-1.403912 -4.91204,-1.95446 -10.61523,-2.437502 -5.53652,-0.46893 -11.75725,-0.622464 -12.79687,-1.023438 -0.28755,-0.110854 -0.62328,-0.171916 -0.99414,-0.189453 z m -71.73047,17.435543 v 0.002 c -0.59243,0.0399 -1.20317,0.20508 -1.80664,0.54297 -2.19183,1.22649 -3.99939,2.88707 -4.97657,6.85742 -2.801,11.38102 -4.30474,13.64776 -14.70312,22.17383 -5.46574,4.48158 -10.59139,9.50915 -11.38867,11.16992 -1.91547,3.99052 -0.82101,7.85942 2.75,9.73047 v -0.002 c 2.40201,1.2586 5.05705,1.69752 9.17187,-0.34961 4.11491,-2.04698 9.68796,-6.57762 17.92774,-13.18945 5.7074,-4.5798 7.31459,-4.24477 16.32226,-1.07617 3.37286,1.18645 7.33339,2.74865 10.52149,2.91015 3.18814,0.1615 5.77737,-0.90436 6.74414,-1.87109 2.09786,-2.09783 1.74786,-8.8281 -0.69336,-10.94531 -1.18873,-1.03097 -7.39926,-3.25223 -13.38086,-5.14844 -5.98165,-1.89624 -11.43566,-2.82464 -11.69727,-3.53711 -0.26162,-0.71242 0.0895,-5.09625 -0.0644,-8.90039 -0.16789,-4.15255 0.3117,-5.01774 -0.63281,-6.40234 -0.70852,-1.03939 -2.31658,-2.07973 -4.09375,-1.96485 z m -77.49805,1.6836 v 0.002 c -7.04495,-0.11444 -8.2361,3.30258 -11.13867,17.76758 -0.9997,4.98715 -1.08949,8.8868 -1.17774,9.78125 -0.001,-6.9e-4 -0.0235,-0.0179 -0.0234,-0.0176 0.007,0.051 0.0111,0.0393 0.0176,0.0762 -0.0222,-0.0175 -0.1,-0.0778 -0.0996,-0.0762 0.05,0.34037 0.0758,0.32332 0.10157,0.0801 0.0313,0.17514 0.0551,0.18491 0.0742,0.0547 0.35364,0.27926 1.87386,1.45141 3.13671,1.38086 0.099,-8.6e-4 0.20041,0.009 0.29493,-0.008 0.72793,0.0564 1.65334,0.0877 2.74609,0.0996 7.8e-4,1e-5 0.001,-1e-5 0.002,0 1.08989,0.0119 2.34355,0.008 3.72461,-0.004 2.76691,-0.0239 6.05303,-0.0762 9.56641,-0.0762 1.60844,0 2.87589,0.0181 4.22461,0.0332 0.70459,0.008 1.57529,0.0106 2.21484,0.0195 1.89265,0.0262 3.51515,0.0506 4.91406,0.0469 2.80958,-0.007 4.74031,-0.13255 6.22071,-0.60546 2.94436,-0.94057 4.13476,-3.25695 4.13476,-6.42969 0,-2.60138 -0.38256,-4.67273 -2.08203,-5.51172 -0.84969,-0.41958 -2.02907,-0.53082 -3.6543,-0.53711 -10e-4,-10e-6 -0.003,0 -0.004,0 -1.6374,-0.0102 -3.72841,0.0918 -6.4082,0.0918 -2.71008,0 -4.6189,0.39761 -6.14063,0.49804 -0.35138,0.0232 -0.67682,0.0249 -0.99219,0.008 -0.002,-1.4e-4 -0.004,1.3e-4 -0.006,0 -1.01364,-0.0696 -1.87071,-0.40298 -2.74414,-1.29297 -1.62372,-1.65455 -0.44178,-2.14858 -0.41797,-6.94141 0,0 0.87488,-3.19266 0.88282,-4.44336 0.006,-1.2507 -1.53321,-3.57812 -1.53321,-3.57812 l -4.26172,-0.34766 c -0.53468,-0.0375 -1.03936,-0.0612 -1.51757,-0.0684 -0.0173,-3.2e-4 -0.0375,-0.002 -0.0547,-0.002 z m -116.51563,2.00976 c -0.85229,-0.0162 -1.71495,-0.016 -2.58398,0.002 -8.938639,0.18463 -18.479635,2.16242 -22.777344,5.54297 -1.51581,1.19239 -3.07651,2.16601 -3.46875,2.16601 -1.467356,0 -5.115842,4.29278 -8.804687,11.60156 -2.245539,4.44913 -2.641969,13.29697 -1.029297,19.05664 2.383355,8.51251 12.811645,16.18291 24.316406,18.60938 2.659128,0.56104 6.042246,0.84914 7.519532,0.64258 1.47725,-0.20655 5.21063,-0.68441 8.29687,-1.06446 4.40427,-0.54221 5.72198,-1.38048 9.26368,-4.52343 4.18257,-3.71174 4.5423,-5.16034 4.94726,-11.06836 0.73057,-10.65731 -5.81902,-19.03546 -14.63086,-21.40821 -7.60029,-2.0465 -12.450361,1.68906 -13.072263,7.0293 -0.220536,1.89218 3.057172,1.38016 5.521483,2.29688 6.38911,2.37669 6.67578,3.8399 6.67578,7.06835 0,2.92111 -2.11906,4.93923 -4.45117,6.12891 -2.33211,1.18993 -5.910151,0.86223 -9.517578,-0.21875 -5.917719,-1.77303 -8.033203,-5.60068 -8.033203,-13.20312 0,-5.52663 0.744588,-7.88481 4.513672,-10.63477 l 3.826172,-2.79101 h 12.855467 c 11.37831,0 12.31664,0.088 14.82227,-1.88282 3.64853,-2.86991 3.68169,-8.1648 0.24219,-10.34765 -3.04054,-1.92957 -8.46556,-2.88832 -14.43165,-3.00196 z" transform="scale(0.26458333)"></path>
      <path fill="#E60A78" d="m 70.828325,41.414093 c -0.944829,-0.495047 -1.233929,-1.518703 -0.727118,-2.57452 0.210937,-0.43941 1.56672,-1.769101 3.012853,-2.954844 2.751218,-2.255864 3.149005,-2.855789 3.890103,-5.867018 0.258543,-1.050487 0.737004,-1.490299 1.316913,-1.814808 0.63869,-0.357397 1.310878,0.0095 1.560823,0.376156 0.249955,0.366356 0.123269,0.594955 0.16772,1.693651 0.04072,1.006511 -0.05181,2.166709 0.01741,2.355204 0.06922,0.188495 1.511972,0.433882 3.094615,0.935597 1.582632,0.501704 3.226091,1.089769 3.540608,1.362547 0.645905,0.560178 0.737869,2.340643 0.182808,2.895694 -0.25579,0.25578 -0.940155,0.537958 -1.783673,0.495247 -0.843517,-0.04273 -1.891811,-0.455923 -2.784211,-0.769839 -2.383269,-0.838358 -2.808267,-0.927557 -4.31835,0.284183 -2.180098,1.749371 -3.654962,2.948396 -4.743686,3.489995 -1.088725,0.541587 -1.791312,0.425747 -2.426846,0.09274 z m 0.03978,-17.128325 c 0.198002,-0.270371 0.479199,-0.657544 0.90158,-0.791332 0.422382,-0.133809 1.070281,-0.01055 2.175287,-0.04315 l 2.655383,-0.03682 v -2.361292 -2.71909 h -2.432196 c 0,0 -1.691224,0.224444 -2.313063,-0.238264 C 71.551067,17.869605 71.41864,17.046092 71.41864,17.046092 71.177843,16.357395 71.01101,13.375329 70.900645,10.463049 70.790266,7.5507675 70.575626,4.3600434 70.423648,3.3725458 70.14665,1.5726035 70.394206,0.73129118 71.173197,0.21112238 c 0.477458,-0.31881177 3.844713,-0.26052753 3.844713,0.0672105 0,0.15742228 0.01931,0.6629567 0.334174,0.97779072 0.527828,0.5278287 0.71894,0.4933478 5.271451,0.4972412 6.112638,0.00527 6.521039,-0.1840849 6.458481,1.9602766 -0.02448,0.8371658 -0.25273,1.8911775 -0.410258,2.3907611 -0.351277,1.1140263 -1.669657,7.6141205 -1.930607,9.5743225 -0.333678,2.506592 -0.106618,2.512279 -2.092239,2.512279 -1.005835,0 -1.933688,0.149804 -2.127353,0.343469 -0.486764,0.486765 -0.426254,3.245707 0.09317,4.250254 0.461737,0.892908 0.851927,0.582631 4.716274,0.66664 1.391099,0.03017 1.536957,0.230847 1.81234,1.547686 0.162403,0.77655 -0.131646,1.517659 -0.796882,2.134191 -0.835276,0.680049 -2.121782,0.554037 -3.043789,0.509301 -0.663801,-0.03218 -1.144856,-0.186945 -2.328478,-0.204861 -1.303365,-0.01973 -2.963759,0.03904 -4.467543,0.119313 -0.751902,0.0401 -1.424935,0.204701 -2.034335,0.248477 -0.609399,0.04368 -1.155154,-0.03345 -1.493654,-4e-4 -0.706585,-0.08357 -1.126107,0.150004 -1.522037,-0.06922 -0.39593,-0.219168 -0.847675,-0.851336 -0.983341,-1.157297 -0.06246,-0.748421 -0.02332,-1.721843 0.394801,-2.292794 z m 9.922172,-9.740989 c 0.33467,-0.334649 1.968802,-7.1097045 2.054635,-8.5182327 L 82.778112,5.2473165 79.54704,5.2039515 C 77.704497,5.1791564 75.839011,5.51485 75.595798,5.608185 c -0.370849,0.1423131 -0.28336,0.6453047 -0.28336,4.1491219 0,2.4814571 0.127352,4.4159261 0.313642,4.7640061 0.285238,0.532978 0.519155,0.574592 2.584099,0.459616 1.248753,-0.06953 2.754552,-0.269971 2.580132,-0.436087 z"></path>
      <path fill="#F7E61A" d="m 98.810547,24.519531 c -7.324641,0.0052 -7.591,2.536415 -7.591797,10.070313 -5.56e-4,5.083345 -0.320896,16.113617 -0.408203,25.46289 L 90.53125,92.367188 92.664062,95.375 c 0.09268,1.765047 3.191441,1.252142 6.214844,1.185547 3.023364,-0.06664 5.361554,0.488072 6.759764,-0.777344 1.67963,-1.519952 1.96485,-3.516312 1.96485,-13.751953 0,-7.880561 0.44057,-12.415187 1.28906,-13.263672 0.74783,-0.747878 4.33276,-1.289062 8.53515,-1.289062 6.26865,0 7.46888,-0.322624 8.91602,-2.388672 0.91983,-1.313307 1.67383,-3.959329 1.67383,-5.88086 0,-2.175193 -1.13426,-4.686354 -3.51367,-5.964843 -2.37941,-1.278547 -6.00495,-1.324219 -9.61133,-1.324219 -7.92502,0 -7.28906,-1.541726 -7.28906,-14.486328 0,-6.104466 0.39208,-9.167021 -0.76954,-10.873047 -1.16161,-1.706146 -3.87694,-2.056965 -8.023433,-2.041016 z m 47.859373,6.072266 c -8.21939,-0.06531 -15.31192,0.337309 -16.22461,1.25 -0.70907,0.709074 -2.15234,3.840832 -2.15234,6.958984 0,3.98191 0.22925,7.174326 3.18945,8.675781 2.96015,1.50149 8.65128,1.312916 17.50586,1.976563 13.70843,1.02754 18.02427,1.654744 17.94531,3.367187 -0.0211,0.457766 -0.73959,3.731898 -1.5957,7.277344 v 0.002 c -1.48936,6.495629 -2.6786,7.670149 -0.97266,9.253907 1.70595,1.582155 6.30696,3.576239 13.63868,-0.01172 0.45461,-0.4381 2.06283,-5.807952 3.57421,-11.931641 4.46524,-18.091513 2.27072,-22.740306 -11.92187,-25.257812 -5.42183,-0.961722 -14.76694,-1.495241 -22.98633,-1.560547 z m 66.17774,0.433594 c -1.51319,0.04189 -3.03014,0.200087 -3.92578,0.43164 l -3.25782,0.841797 -0.33203,12.289063 c -0.12566,8.127802 -1.06482,18.145781 1.97656,23.201171 1.52072,2.527718 6.25881,3.652257 9.8711,3.521485 L 229.375,70.869141 c 9.30557,-0.34783 16.24826,-0.03929 17.11328,-0.371094 1.6927,-0.649576 3.62962,-2.906459 4.06445,-5.646485 0.43484,-2.740066 -0.6342,-6.652466 -2.19726,-7.859374 -1.10759,-0.855069 -5.22512,-0.136719 -11.63867,-0.136719 -5.53954,0 -11.14068,-0.134295 -12.23633,-0.720703 -2.55958,-1.369856 -4.52762,-8.185937 -5.30664,-16.91211 -0.58497,-6.552616 0.59671,-7.126382 -2.42774,-7.93164 -0.87705,-0.233212 -2.38525,-0.307511 -3.89843,-0.265625 z m -197.281254,8.46289 c -3.827618,-0.02061 -6.1326845,0.04058 -6.753906,0.373047 -1.592733,0.852431 -2.078125,2.269133 -2.078125,6.060547 0,3.068387 0.2128231,6.65303 1.9960938,8.097656 1.7833102,1.444626 5.1370022,0.747674 8.6621092,0.771485 C 26.258405,54.849715 25,54.444402 25,66.412109 v 10.398438 l -6.177734,5.84375 c -3.289827,3.32428 -8.744882,7.739759 -11.8828129,10.058594 -3.1379709,2.318914 -6.11408756,5.268182 -6.6113281,6.552734 -1.4139193,3.652405 1.9138401,8.542655 6.4453125,9.472655 4.3187225,0.88629 10.6298985,-2.27336 22.0996095,-11.064452 7.427583,-5.692966 7.668915,-5.774832 11.654297,-3.958984 3.885607,1.770391 3.493532,5.430108 -1.13086,10.548826 -4.488042,4.96766 -5.313968,10.8893 -1.880859,13.49024 2.224322,1.55189 4.418384,2.25474 6.880859,1.13281 2.462393,-1.12194 5.131552,-3.9827 10.009766,-8.82813 l 9.332031,-9.26953 4.771485,0.29297 c 2.969884,0.42984 4.351333,1.84934 5.972656,2.07422 2.283666,0.31683 5.293205,0.0224 6.945312,-2.51563 2.780429,-4.243388 1.365321,-7.730895 -4.160156,-10.248042 -6.317174,-2.877846 -7.325914,-4.388131 -6.9375,-10.388672 l 0.330078,-5.109375 4.857422,-0.421875 c 3.211707,-0.27823 7.057251,-2.6217 7.640625,-3.205078 0.583397,-0.583298 0.911936,-3.399986 0.728516,-6.259766 -0.28732,-4.478513 -2.333138,-5.460949 -5.109375,-7.076171 -2.915214,-1.69629 -6.038229,-0.905877 -19.642578,0.09766 -8.272642,0.610216 -12.370716,0.747643 -13.109375,1.359375 -0.738584,0.61169 -1.6875,4.4077 -1.6875,6.960937 0,2.689263 0.703375,4.984841 2.40039,6.050782 1.697016,1.065985 3.352439,1.247326 6.634766,1.77539 3.81662,0.614087 3.857422,0.513515 3.857422,4.296875 0,2.497448 -0.732413,4.657174 -1.955078,5.763672 -1.825104,1.651714 -2.325326,1.585378 -7.513672,-1 -8.206957,-4.089823 -9.869141,-7.02135 -9.869141,-17.392578 0,-5.735195 0.461617,-8.951368 1.400391,-9.730469 0.771201,-0.640085 5.346856,-1.014042 9.746093,-1.675781 4.912271,-0.738943 7.999421,-0.665803 8.824219,-1.728516 1.89645,-2.443615 1.840179,-9.671639 -0.261719,-11.99414 -1.614583,-1.784187 -5.740444,-1.103516 -26.140624,-1.103516 -6.715898,0 -12.066913,-0.102434 -15.894532,-0.123047 z m 132.703124,42.34375 c -22.38431,-0.09772 -24.06071,0.828481 -24.0293,6.09375 0.0343,6.108095 3.79072,7.935547 16.33594,7.935547 8.49265,0 9.66708,-0.602203 10.64063,1.216797 0.61082,1.142948 0.5957,8.117515 0.5957,14.656255 0,10.45628 0.0867,11.97545 1.97656,13.86523 2.36183,2.36186 8.42467,2.89096 11.88867,1.03711 1.88921,-1.01107 2.25,-1.85018 2.25,-14.4082 0,-11.60558 -0.41799,-14.09083 1.00977,-14.638676 0.93466,-0.358904 5.02181,-0.308594 9.92383,-0.308594 10.20071,0 12.96379,-1.493916 12.72851,-7.753906 -0.13646,-3.630108 -0.61874,-6.196668 -4.73828,-7.142578 -4.11949,-0.945907 -11.18717,-0.271986 -27.66601,-0.457032 -4.0984,-0.04602 -7.71826,-0.08174 -10.91602,-0.0957 z m 76.44531,4.466797 -21.20507,0.171875 -1.19141,3.855469 c 0.0143,3.497594 0.36595,7.053462 2.52539,8.058594 2.1594,1.005169 7.61378,0.247347 15.7168,0.480468 l 27.2832,0.785157 -0.0625,-7.826172 0.0625,-5.525391 z m -4.38867,21.435552 c -7.04495,-0.11454 -8.23811,3.30257 -11.14062,17.76757 -1.00981,5.03729 -1.09249,9.00243 -1.18164,9.84375 0.26564,0.20915 2.08985,1.6881 3.4414,1.42774 2.87976,0.23138 8.99472,0.0195 16.02149,0.0195 9.93177,0 14.62989,0.43665 17.57422,-0.50391 2.94436,-0.94057 4.13476,-3.25889 4.13476,-6.43164 0,-2.60137 -0.38257,-4.67272 -2.08203,-5.51172 -1.69939,-0.83915 -4.7153,-0.44531 -9.98437,-0.44531 -5.42015,0 -7.63119,1.59083 -9.96485,-0.78711 -1.62372,-1.65454 -0.43983,-2.14857 -0.41601,-6.9414 0,-1e-5 0.87292,-3.19071 0.88086,-4.44141 0.007,-1.2507 -1.53126,-3.58008 -1.53126,-3.58008 l -4.26367,-0.34766 c -0.52393,-0.0368 -1.01861,-0.0607 -1.48828,-0.0683 z m -12.32226,27.61132 c -0.0208,-0.0164 -0.0998,-0.0795 -0.0996,-0.0781 0.05,0.34114 0.0737,0.32229 0.0996,0.0781 z m -106.7793,-25.59961 c -8.938617,0.18471 -18.47775,2.16049 -22.775391,5.54102 -1.515848,1.19239 -3.076745,2.16797 -3.46875,2.16797 -1.467353,0 -5.113889,4.29082 -8.802735,11.59961 -2.245462,4.44913 -2.643883,13.29891 -1.03125,19.05859 2.383359,8.51251 12.80973,16.18096 24.314454,18.60742 2.659075,0.56104 6.044199,0.85109 7.521484,0.64453 1.477247,-0.20657 5.210628,-0.68636 8.296878,-1.0664 4.40426,-0.54222 5.71998,-1.38049 9.26172,-4.52344 4.18253,-3.71173 4.54425,-5.16029 4.94921,-11.06836 0.73061,-10.65727 -5.81906,-19.03354 -14.63085,-21.40625 -7.600261,-2.04654 -12.452363,1.68906 -13.074224,7.0293 -0.220365,1.89218 3.057214,1.3782 5.521485,2.29492 6.389039,2.3767 6.677739,3.8399 6.677739,7.06836 0,2.92111 -2.11911,4.93918 -4.451177,6.12891 -2.332116,1.1899 -5.910159,0.8621 -9.517578,-0.21875 -5.917716,-1.77303 -8.035156,-5.60068 -8.035156,-13.20313 0,-5.52663 0.746544,-7.88485 4.515625,-10.63477 l 3.824218,-2.79101 h 12.855468 c 11.37831,0 12.3186,0.09 14.82422,-1.88086 3.64879,-2.86995 3.67992,-8.16481 0.24023,-10.34766 -3.47487,-2.20521 -10.06336,-3.14366 -17.01562,-3 z" transform="scale(0.26458333)"></path>
      <path fill="#5DC8F2" d="m 95.669243,36.3425 c -0.246664,-0.246664 -0.04537,-1.808478 -0.112432,-3.471362 -0.0671,-1.662874 0.04178,-3.630578 0.290324,-3.836841 0.101501,-0.08419 0.269337,-0.358547 0.793484,-0.439843 0.524136,-0.08124 1.534266,-0.06225 2.171826,-0.115376 1.07906,-0.09001 1.607695,0.01277 1.922165,-0.06573 0.31446,-0.0785 0.41472,-0.33812 0.41472,-0.634279 0,-0.793484 -0.6551,-0.960023 -2.683647,-0.965509 -0.440951,-0.0021 -0.884234,0.0288 -1.258904,-0.02912 -0.374679,-0.05793 -0.680734,-0.204238 -0.773109,-0.262975 -0.464892,-0.295589 -0.842674,-1.612439 -0.656215,-2.09836 0.211951,-0.552327 1.654633,-1.161843 2.263431,-0.927049 0.275066,0.106091 1.920955,0.146206 3.385824,0.270276 1.50897,0.127805 2.32818,0.273801 2.80876,0.645252 0.48058,0.371462 0.62252,0.968379 0.77692,1.998039 0.20045,1.336729 -0.45521,4.147602 -1.04924,4.959983 -0.25941,0.35477 -0.85751,0.220265 -2.5073,0.263936 -0.89744,0.141163 -2.367326,-0.190131 -2.798147,0.644672 -0.204439,0.396151 0.920191,0.587347 1.172954,0.61095 0.641123,0.05592 1.466203,-0.0154 2.140953,0.06932 0.67475,0.08472 1.49558,0.158784 1.75775,0.320205 0.52432,0.322843 0.90727,1.273 0.90727,1.950644 0,0.673212 -0.30698,1.172753 -0.90151,1.372211 -1.49511,0.0747 -7.535295,0.126381 -8.065877,-0.259039 z m 27.223967,-6.122872 c 0.24964,-0.482734 0.47242,-1.117741 0.47242,-1.275247 0,-0.157529 -0.76381,-0.619845 -1.69734,-1.253786 -0.71661,-0.486638 -1.26599,-0.788874 -1.54358,-1.1135 -0.2776,-0.324614 -0.28342,-0.671598 -0.28342,-1.02545 0,-0.803096 -0.003,-1.089009 1.20073,-1.089009 0.69097,0 1.30372,0.200048 1.44965,0.310381 0.0961,0.07269 1.00606,0.539161 1.467,0.543878 0.62556,0.0063 0.59759,-0.147917 0.84503,-0.690982 0.4011,-0.880309 0.15192,-0.89335 -2.09648,-1.551368 -1.98027,-0.579519 -2.35572,-1.048441 -2.35572,-2.195588 0,-1.190289 0.74753,-1.375745 3.37219,-1.112158 1.66797,0.167509 2.05713,0.12119 2.5229,-0.300337 0.28188,-0.277547 0.32668,-0.768626 0.44739,-1.143 0.3439,-1.097967 0.47077,-2.440171 1.2135,-3.157424 0.35022,-0.272493 0.86919,-0.445172 1.48464,-0.413613 0.61545,0.03155 1.32738,0.267343 1.61893,0.589499 0.61005,0.674089 0.42887,1.012811 -1.65402,6.684159 -0.74285,2.022644 -1.88824,5.388263 -2.63585,7.592322 -0.54944,1.619814 -0.92734,3.054489 -1.23005,3.69706 -0.3027,0.642562 -0.56727,0.770916 -0.8393,0.894838 -2.44495,0.903617 -2.95495,-1.300527 -1.75862,-3.990675 z m -11.20574,0.743218 c -0.32579,-0.217215 -0.20754,-1.85447 -0.17656,-4.508597 l 0.05,-4.285927 c 0.003,-0.273716 0.75276,-0.745287 0.75276,-0.745287 0,0 1.44148,-0.142492 2.14163,-0.34252 1.23705,-0.353419 1.27552,-0.398757 1.36187,-1.604399 0.0488,-0.682392 -0.10907,-1.354485 -0.2824,-1.52784 -0.17396,-0.173955 -1.81183,-0.08283 -3.13729,-0.107758 -2.65628,-0.04991 -2.83543,-0.488442 -2.83543,-1.693555 0,-1.320006 0.41034,-1.880374 2.69535,-1.870551 1.30046,0.0053 2.65824,0.05856 4.05757,0.242506 1.39935,0.183906 2.84022,0.498772 3.07238,0.691445 0.53944,0.447704 0.51886,3.874772 0.1849,5.941382 -0.36164,2.23794 -1.15619,2.594102 -3.07452,2.952491 -0.7574,0.141511 -1.37423,0.261488 -1.50788,0.472426 -0.1053,0.1662 -0.10817,0.397575 -0.12612,1.068571 l -0.0548,2.050289 c -0.0199,0.741404 1.05549,0.483282 2.25909,0.609684 1.22272,0.128322 1.73849,-0.02553 2.22914,0.263608 0.24533,0.144572 0.51244,0.287665 0.69015,0.576016 0.17773,0.288362 0.26605,0.722012 0.26605,0.998787 0.0868,1.114554 -0.81353,1.471308 -1.74654,1.520623 -0.48733,0.02575 -0.67225,-0.140371 -1.64559,-0.140371 -1.65561,0 -1.97197,0.193254 -2.66457,0.177849 -0.69262,-0.01562 -1.76147,-0.239984 -2.0042,-0.401891 z m -10.74344,-8.345427 c -0.57421,-0.402187 -0.4462,-0.378826 -0.31672,-6.239293 0.0764,-3.454691 0.007,-5.229438 0.27993,-6.224689 0.27207,-0.9952534 0.6041,-1.2671126 1.48141,-1.2671126 0.64801,0 1.32209,0.056343 1.59535,0.5713941 0.27325,0.5150517 0.42624,1.5449225 0.48098,2.7063975 0.0842,1.786078 -0.13935,1.290503 1.05082,1.696742 0.49448,0.168786 1.25077,0.631493 1.4749,1.028235 0.36178,0.640388 0.18477,1.365522 -0.24556,2.022307 -0.29944,0.456988 -1.02436,0.599533 -1.4429,0.599533 -1.44908,0 -1.12359,-0.167488 -1.12359,2.148572 0,1.258724 0.0656,2.20675 -0.21629,2.812024 -0.28213,0.605284 -0.85606,0.923938 -1.46218,0.923938 -0.42332,0 -1.23161,-0.550725 -1.55615,-0.778048 z m -12.147936,-5.426595 0.105405,-5.560942 2.915382,0.01065 c 1.811866,0.0063 3.824064,-0.08272 4.894419,0.138947 l 2.175466,0.605221 -0.03356,3.769167 c -0.03682,4.140438 0.05613,5.209411 -1.209419,5.850315 -1.001457,0.280406 -1.280196,0.485846 -2.29961,0.542538 -1.019404,0.05666 -2.779484,-0.03545 -3.601266,-0.0134 -1.643576,0.0441 -2.984989,-0.100869 -2.965437,-0.856274 l 0.03577,-1.381117 c 0.02174,-0.839223 -0.03134,-1.709076 -0.01709,-3.105155 z m 6.35526,2.176405 c 0.283919,-0.405352 0.456493,-1.416969 0.456493,-2.550695 l -0.03229,-1.871383 -1.040042,-0.01952 c -2.54391,-0.04769 -2.493255,-0.708104 -2.547857,2.094846 l 0.01245,1.389842 -0.0053,1.349865 c 0.544584,0.127541 1.819345,-0.0011 2.370492,-0.088 0.551146,-0.08694 0.03999,-0.03524 0.464027,-0.06289 z"></path>
    </g>
  </g>
</svg>
